<svg version="1.1" id="Layer_1" xmlns="http://www.w3.org/2000/svg" xmlns:xlink="http://www.w3.org/1999/xlink" x="0px" y="0px"
	 width="100%" viewBox="0 0 344 302" enable-background="new 0 0 344 302" xml:space="preserve">
<path fill="#000000" opacity="1.000000" stroke="none" 
	d="
M230.000000,303.000000 
	C153.333359,303.000000 77.166718,303.000000 1.000061,303.000000 
	C1.000041,202.333389 1.000041,101.666794 1.000021,1.000142 
	C115.666565,1.000095 230.333130,1.000095 344.999756,1.000047 
	C344.999847,101.666527 344.999847,202.333054 344.999939,302.999786 
	C306.833344,303.000000 268.666656,303.000000 230.000000,303.000000 
M36.948647,232.966904 
	C36.948647,232.966904 36.935516,232.889587 36.299416,233.179794 
	C35.588581,234.789703 34.877747,236.399612 33.861149,238.654709 
	C32.258377,241.234909 30.530209,243.746475 29.073786,246.406799 
	C21.337519,260.538025 13.669424,274.706604 5.232726,289.268280 
	C4.479581,291.556244 5.459115,292.065125 7.648099,292.040771 
	C20.099764,291.902313 32.552837,291.890564 45.931408,291.985657 
	C58.922756,291.994263 71.914108,292.002838 85.309654,292.803436 
	C97.875336,292.826569 110.441025,292.849670 123.929451,293.042206 
	C130.625290,292.963684 137.321121,292.885162 144.941269,292.962189 
	C164.618378,292.918732 184.295486,292.875244 204.858002,292.982300 
	C218.181488,292.982300 231.504990,292.982300 245.009125,292.982300 
	C244.918976,292.339508 245.071899,291.051147 244.557968,290.138153 
	C240.097412,282.213989 235.419785,274.411407 230.995499,266.467529 
	C224.550339,254.895096 218.556732,243.057602 211.721970,231.724274 
	C209.741577,228.440384 209.411621,222.906601 203.298294,222.949020 
	C177.861435,223.125519 152.423340,223.121002 126.060066,223.034927 
	C97.816650,223.034927 69.573235,223.034927 41.386745,223.034927 
	C40.254570,225.823166 39.196690,228.428421 37.997643,231.429230 
	C37.997643,231.429230 37.963806,231.847824 37.437420,232.040207 
	C37.248440,232.351227 37.059460,232.662247 36.948647,232.966904 
M257.460419,299.727142 
	C267.963867,299.812317 278.467285,299.916077 288.970856,299.938934 
	C289.640320,299.940399 290.311127,299.313934 291.920929,298.969604 
	C306.725433,298.969604 321.529907,298.969604 337.218903,298.969604 
	C296.925018,229.510361 256.948853,160.598831 216.511917,90.892982 
	C214.687439,93.647911 213.626175,95.092773 212.726944,96.632271 
	C201.842331,115.266594 190.950500,133.896881 180.152252,152.581238 
	C178.726883,155.047577 177.730591,157.292923 179.688095,160.630981 
	C186.178787,171.699356 191.995636,183.161804 198.121109,194.445862 
	C201.449173,200.576645 204.827438,206.681488 208.274506,212.746048 
	C213.461273,221.871353 218.720154,230.955750 223.963181,240.048996 
	C230.076263,250.651321 236.286499,261.198639 242.302429,271.855682 
	C247.359024,280.813324 252.197388,289.894135 257.460419,299.727142 
M60.344761,213.466125 
	C61.376667,213.974243 62.406994,214.922226 63.440716,214.925949 
	C87.072906,215.010925 110.705505,215.009979 134.337845,214.951096 
	C135.744583,214.947586 137.149796,214.325012 139.036530,213.541946 
	C139.876678,211.739136 140.577805,209.854874 141.578781,208.146286 
	C150.303040,193.254837 159.171371,178.447205 167.819016,163.511658 
	C177.626633,146.572708 187.166565,129.478699 196.984085,112.545586 
	C203.678757,100.998749 210.778442,89.685257 217.373459,78.083511 
	C218.498062,76.105156 219.056229,72.621025 218.073257,70.812309 
	C208.675598,53.520260 198.914398,36.425194 189.199631,19.306463 
	C186.494110,14.539007 183.596497,9.880580 180.798172,5.190864 
	C180.112534,5.592721 179.907806,5.640650 179.835205,5.765447 
	C167.610291,26.781507 155.330292,47.765930 143.202118,68.837730 
	C135.364166,82.455582 127.820061,96.242310 120.016266,109.880119 
	C110.089157,127.228638 100.070465,144.525116 90.018784,161.801849 
	C83.107826,173.680359 75.974998,185.430634 69.140594,197.352448 
	C66.199249,202.483261 63.762318,207.903244 60.344761,213.466125 
z"/>
<path fill="#DDEB9D" opacity="1.000000" stroke="none" 
	d="
M37.963806,231.847824 
	C37.963806,231.847824 37.997643,231.429230 38.405449,231.158020 
	C39.544544,230.250961 40.651588,229.753464 40.945084,228.956406 
	C42.632149,224.374710 46.024605,223.874161 50.404865,223.910141 
	C73.993080,224.103973 97.583824,224.016052 121.173531,223.958893 
	C123.111534,223.954208 125.048332,223.453262 126.985695,223.182892 
	C152.423340,223.121002 177.861435,223.125519 203.298294,222.949020 
	C209.411621,222.906601 209.741577,228.440384 211.721970,231.724274 
	C218.556732,243.057602 224.550339,254.895096 230.995499,266.467529 
	C235.419785,274.411407 240.097412,282.213989 244.557968,290.138153 
	C245.071899,291.051147 244.918976,292.339508 245.009125,292.982300 
	C231.504990,292.982300 218.181488,292.982300 204.069748,292.686096 
	C202.631577,292.266266 201.981827,292.035431 201.331741,292.034546 
	C183.336700,292.010010 165.341629,291.994629 147.346680,292.038239 
	C146.236160,292.040955 145.126846,292.539032 144.016953,292.806641 
	C137.321121,292.885162 130.625290,292.963684 123.156441,292.676208 
	C109.890770,292.210632 97.398117,292.111023 84.905457,292.011414 
	C71.914108,292.002838 58.922756,291.994263 45.128471,291.671844 
	C33.350235,291.233917 22.372280,291.203583 11.402251,290.893188 
	C9.576377,290.841522 7.785018,289.570038 5.977711,288.862213 
	C13.669424,274.706604 21.337519,260.538025 29.073786,246.406799 
	C30.530209,243.746475 32.258377,241.234909 34.342163,238.231750 
	C35.527290,236.169052 36.231403,234.529312 36.935516,232.889587 
	C36.935516,232.889587 36.948647,232.966904 37.138599,232.831055 
	C37.540302,232.412750 37.752056,232.130295 37.963806,231.847824 
z"/>
<path fill="#163E60" opacity="1.000000" stroke="none" 
	d="
M61.096222,213.191864 
	C63.762318,207.903244 66.199249,202.483261 69.140594,197.352448 
	C75.974998,185.430634 83.107826,173.680359 90.018784,161.801849 
	C100.070465,144.525116 110.089157,127.228638 120.016266,109.880119 
	C127.820061,96.242310 135.364166,82.455582 143.202118,68.837730 
	C155.330292,47.765930 167.610291,26.781507 179.835205,5.765447 
	C179.907806,5.640650 180.112534,5.592721 180.798172,5.190864 
	C183.596497,9.880580 186.494110,14.539007 189.199631,19.306463 
	C198.914398,36.425194 208.675598,53.520260 218.073257,70.812309 
	C219.056229,72.621025 218.498062,76.105156 217.373459,78.083511 
	C210.778442,89.685257 203.678757,100.998749 196.984085,112.545586 
	C187.166565,129.478699 177.626633,146.572708 167.819016,163.511658 
	C159.171371,178.447205 150.303040,193.254837 141.578781,208.146286 
	C140.577805,209.854874 139.876678,211.739136 138.286224,213.770294 
	C113.467422,214.001221 89.398888,214.017548 65.330467,213.971603 
	C63.918560,213.968903 62.507614,213.463379 61.096222,213.191864 
z"/>
<path fill="#29667B" opacity="1.000000" stroke="none" 
	d="
M257.132355,298.920410 
	C252.197388,289.894135 247.359024,280.813324 242.302429,271.855682 
	C236.286499,261.198639 230.076263,250.651321 223.963181,240.048996 
	C218.720154,230.955750 213.461273,221.871353 208.274506,212.746048 
	C204.827438,206.681488 201.449173,200.576645 198.121109,194.445862 
	C191.995636,183.161804 186.178787,171.699356 179.688095,160.630981 
	C177.730591,157.292923 178.726883,155.047577 180.152252,152.581238 
	C190.950500,133.896881 201.842331,115.266594 212.726944,96.632271 
	C213.626175,95.092773 214.687439,93.647911 216.511917,90.892982 
	C256.948853,160.598831 296.925018,229.510361 337.218903,298.969604 
	C321.529907,298.969604 306.725433,298.969604 290.983643,298.988861 
	C279.075043,298.978882 268.103699,298.949646 257.132355,298.920410 
z"/>
<path fill="#DFE9B2" opacity="1.000000" stroke="none" 
	d="
M126.522881,223.108917 
	C125.048332,223.453262 123.111534,223.954208 121.173531,223.958893 
	C97.583824,224.016052 73.993080,224.103973 50.404865,223.910141 
	C46.024605,223.874161 42.632149,224.374710 40.945084,228.956406 
	C40.651588,229.753464 39.544544,230.250961 38.476028,230.960266 
	C39.196690,228.428421 40.254570,225.823166 41.386745,223.034927 
	C69.573235,223.034927 97.816650,223.034927 126.522881,223.108917 
z"/>
<path fill="#69859A" opacity="1.000000" stroke="none" 
	d="
M60.720490,213.328995 
	C62.507614,213.463379 63.918560,213.968903 65.330467,213.971603 
	C89.398888,214.017548 113.467422,214.001221 138.045822,213.994568 
	C137.149796,214.325012 135.744583,214.947586 134.337845,214.951096 
	C110.705505,215.009979 87.072906,215.010925 63.440716,214.925949 
	C62.406994,214.922226 61.376667,213.974243 60.720490,213.328995 
z"/>
<path fill="#E3E9B3" opacity="1.000000" stroke="none" 
	d="
M144.479111,292.884430 
	C145.126846,292.539032 146.236160,292.040955 147.346680,292.038239 
	C165.341629,291.994629 183.336700,292.010010 201.331741,292.034546 
	C201.981827,292.035431 202.631577,292.266266 203.627045,292.610840 
	C184.295486,292.875244 164.618378,292.918732 144.479111,292.884430 
z"/>
<path fill="#F4FEDF" opacity="1.000000" stroke="none" 
	d="
M5.605218,289.065247 
	C7.785018,289.570038 9.576377,290.841522 11.402251,290.893188 
	C22.372280,291.203583 33.350235,291.233917 44.665485,291.596863 
	C32.552837,291.890564 20.099764,291.902313 7.648099,292.040771 
	C5.459115,292.065125 4.479581,291.556244 5.605218,289.065247 
z"/>
<path fill="#FFFFFF" opacity="1.000000" stroke="none" 
	d="
M85.107559,292.407440 
	C97.398117,292.111023 109.890770,292.210632 122.695068,292.591492 
	C110.441025,292.849670 97.875336,292.826569 85.107559,292.407440 
z"/>
<path fill="#6F8F99" opacity="1.000000" stroke="none" 
	d="
M257.296387,299.323792 
	C268.103699,298.949646 279.075043,298.978882 290.513855,298.993835 
	C290.311127,299.313934 289.640320,299.940399 288.970856,299.938934 
	C278.467285,299.916077 267.963867,299.812317 257.296387,299.323792 
z"/>
<path fill="#DFE9B2" opacity="1.000000" stroke="none" 
	d="
M36.617466,233.034698 
	C36.231403,234.529312 35.527290,236.169052 34.495045,237.909149 
	C34.877747,236.399612 35.588581,234.789703 36.617466,233.034698 
z"/>
<path fill="#DFE9B2" opacity="1.000000" stroke="none" 
	d="
M37.700615,231.944016 
	C37.752056,232.130295 37.540302,232.412750 37.099518,232.834244 
	C37.059460,232.662247 37.248440,232.351227 37.700615,231.944016 
z"/>
</svg>