<?xml version="1.0" encoding="utf-8"?>
<!DOCTYPE svg PUBLIC "-//W3C//DTD SVG 1.1//EN" "http://www.w3.org/Graphics/SVG/1.1/DTD/svg11.dtd">
<svg version="1.1" id="Layer_1" xmlns="http://www.w3.org/2000/svg" xmlns:xlink="http://www.w3.org/1999/xlink" x="0px" y="0px"
	 viewBox="148.5766 117.3289 985.4234 673.9561" enable-background="new 148.5766 117.3289 985.4234 673.9561" xml:space="preserve"
	>
<g id="_x23_000000ff">
	<path stroke="#000000" stroke-width="0.0938" d="M271,171.02c6.58-13.17,24.79-19.03,37.66-11.61c5.82,2.62,9.81,8.14,11.81,14.06
		c2.4,6.59,1.36,13.73,1.53,20.58c-0.75,8.04,0.36,16.52-2.91,24.11c-1.4,3.51-4.34,5.96-6.79,8.7c0.1,2.41,0.26,4.82,0.41,7.23
		c1.13,1.88,1.72,4.43,3.97,5.32c2.78,1.44,5.21,3.4,7.67,5.32c4.56,3.01,10.3-0.63,15.07,1.84c2.69,1.37,5.64,1.7,8.62,1.41
		c3.11,1.42,5.97,3.44,9.17,4.77c2.09,2.56,3.65,5.52,5.97,7.91c1.77,3.11,1.81,6.88,2.89,10.26c2.39,2.27,5.55,4.45,5.74,8.07
		c0.48,3.46,1.25,6.89,2.9,10.01c4.45,11.47,10.1,22.66,11.68,35c0.76,6.09,0.67,12.43-1.24,18.3c-2.93,3.45-7.88,3.56-12.03,4.24
		c-8.31,0.26-16.01,5.16-24.44,3.48c0.9,7.97,1.02,16,1.94,23.97c-0.06,5.19,1,10.68-1.13,15.61c-1.6,1.99-4.67,2.15-6.04,4.37
		c-0.08,2.82,0.19,5.66-0.16,8.48c0.68,0.25,2.02,0.73,2.69,0.97c0.27,3.38-1.08,6.9,0.31,10.13c1.46,4.85,0.69,10.28,3.16,14.84
		c3.74,7.73,4.69,16.74,2.96,25.13c-1.22,4.4-2.56,8.83-2.8,13.42c0.29,9,0.73,18.1-1.19,26.97c-1.81,7.42-3.71,14.83-5.82,22.17
		c-2.12,21.34-3.91,42.72-6.1,64.06c-1.98,11.74-4.74,23.33-7.29,34.96c-1.37,7.31-4.9,13.92-7.22,20.9301
		c-0.78,2.7-2.95,5.58-1.47,8.41c2.26,4.7,5.23,9.1,6.78,14.12c0.7,2.98,0.87,6.14,2.37,8.89c0.81,2.08,2.95,4.15,1.56,6.47
		c-0.8,2.82-4.29,2.39-6.51,3c1.75,4.39,5.53,7.6,7.05,12.13c1.55,4.23,4,9.04,8.74,10.24c5.78,1.34,11.79,2.3,17.15,4.98
		c2.44,3.14,5.89,6.42,5.28,10.79c-0.51,1.21-2.05,1.27-3.1,1.78c-5.69,1.68-11.7,3.27-17.66,2.28c-2.92,0.73-5.88-0.03-8.79-0.34
		c-5-0.35-10.02-0.86-14.9-2c-1.22-2.52-4.14-2.64-6.49-3.35c-2.96-0.7-5.83-1.82-8.86-2.16c-2.49,0.68-4.64,2.23-7.11,2.97
		c-2.16,0.22-4.3-0.31-6.37-0.83c-4.54-0.04-9.18-0.86-13.15-3.16c0.42-7.77,2.66-15.42,1.81-23.23c-2.03-3.9-6.5-6.34-7.2-10.93
		c-1.82-4.84,1.73-9.14,3.42-13.4301c1.94-4.85,5.18-8.98,7.57-13.5699c-0.69-7.33-1.08-14.6801-0.95-22.05
		c-0.93-16.68-1.53-33.58,1.68-50.08c-1.51-8.88-4.33-17.77-3.04-26.89c-0.47-9.22,4.25-17.89,2.83-27.15
		c-3.06,11.65-5.73,23.4-8.64,35.08c-1.77,7.88-2.71,15.93-2.76,24.01c-1.61,9.12-2.34,18.36-3.51,27.54
		c-0.92,11.85,0,23.93-3.04,35.54c-1.64,9.4-4.6,18.5-8.39,27.25c-1.51,2.2599-4.43,2.95-6.68,4.2599c1.88,1.39,3.92,2.55,5.76,4.02
		c1.87,2.82,3.42,5.87,5.38,8.65c2.45,3.33,1.05,8.16-1.73,10.87c-3.99,4.36-7.38,9.31-11.97,13.08c0.85,2.9,2.19,5.8101,1.51,8.92
		c-0.94,2.59,1.79,4.36,1.71,6.85c0.2,2.08,0.01,5.13-2.64,5.44c-7.55,0.94-15.17,0.02-22.73-0.32c-3.92-0.45-8.26-0.1-11.71-2.32
		c-1.63-3.2599-0.61-7.28,0.15-10.71c-0.3-3.4-0.15-6.88,1.44-9.96c-2.94-4.28-3.16-9.69-5.85-14.06c-1.09-2.1-2.5-4.01-3.6-6.09
		c0.61-2.04,2.3-3.7599,2.15-5.98c0.17-7.38,1.6-14.66,1.71-22.04c0.85-19.93,5.24-39.48,6.64-59.36
		c0.41-5.22,1.31-10.38,1.94-15.57c0.85-6.68-1.16-13.68,1.37-20.13c0.91-3.07,2.78-5.76,3.62-8.84c0.63-10.33-0.13-20.67-0.25-31
		c1.57-12.75,3.84-25.42,5.81-38.12c1.41-8.87-0.26-18.04,2.08-26.78c0.49-4.71,0.84-9.44,1.33-14.15
		c-0.7-4.25-1.88-8.51-1.16-12.84c1.99-11.08,6.17-21.58,9.56-32.26c0.6-5.85,4.63-10.95,3.68-16.99c0.36-0.98,0.7-1.96,1.04-2.94
		c6.47-1.11,11.91,2.98,18.05,4.07c7.99,1.54,16.39,0.6,24.13,3.42c6.79,1.19,13.3,3.67,20.2,4.25c0.3-0.47,0.9-1.41,1.2-1.88
		c4.02,0.63,8.02,1.34,12.05,1.9c0.35,0.38,1.06,1.13,1.42,1.51c6.95-0.38,14.03-0.32,20.72-2.56c0.24-0.5,0.73-1.5,0.97-1.99
		c2.96-1.64,6.73-3.79,6.6-7.68c0.16-5.03,0.47-10.1-0.21-15.1c-0.93-6.46-0.92-13.02-1.86-19.48c-2.95,0-5.89-0.01-8.82-0.17
		c1.05,10.15,2.39,20.45,1.83,30.64c-3.67,5.19-8.27,9.66-11.96,14.84c-0.72,0.2-1.44,0.4-2.15,0.59
		c-1.43-4.31-4.95-7.48-6.85-11.57c-3.27-5.47-2.08-12.11-2.96-18.14c-0.9-5.74-1.01-11.56-1.79-17.31
		c-2.25,0.06-4.58,0.6-6.77-0.15c-1.58-1.12-2.05-3.07-2.59-4.81c-3.93-0.58-8-0.69-11.61-2.53c-8.65-1.84-17.53-4.44-26.46-3.14
		c-2.13,0.07-4.25-0.09-6.37-0.16c-1.86-1.85-2.61-4.36-3.69-6.66c-2.69-1.39-5.82-1.81-8.29-3.65c-3.18-1.81-4.36-5.49-6.87-7.95
		c-4.67-3.63-7.57-9.03-11.96-12.95c-0.37,0.03-1.12,0.1-1.49,0.14c0.92,2.15,1.34,4.62,2.93,6.43c0.56,1.96,1.05,3.94,1.9,5.8
		c2.9,6.54,4.79,13.45,6.74,20.31c0.86,2.61,0.05,5.33-0.1,7.99c-0.48,5.94,0.96,12.12-1.21,17.86c-1.65,4.67-3.06,10.11-7.81,12.6
		c2.54,4.05,6.79,6.66,9.02,10.95c-3.09-3.84-6.99-6.99-9.71-11.11c1.5-1.19,3.15-2.23,4.44-3.66c1.46-2.76,2.34-5.78,3.51-8.66
		c2.06-4.7,1.04-9.96,1.23-14.93c-0.06-3.66,1.02-7.4,0.01-11c-2.3-8.63-4.88-17.23-8.61-25.36c-1.02-3.19-3.01-6.14-3.17-9.55
		c-0.06-2.81-1.66-5.17-3-7.5c0.37-4-0.9-8.04,0.18-11.97c1.91-8.05,4.34-16.11,3.57-24.49c-0.96-5.89,4.44-9.47,6.69-14.23
		c1.04-2.15,2.68-4,4.83-5.08c3.11-1.83,7.01-1.08,10.12-2.91c4.05-2.27,8.85-2.09,13.21-3.43c2.54-0.57,4.45-2.75,7.19-2.64
		c1.27-3.31,2.26-6.72,3.23-10.13c0.35-0.21,1.05-0.65,1.41-0.87c-0.4-5.12-1.05-10.22-1.93-15.28c-3.64-0.35-5.56-3.7-6.96-6.66
		c-1.5-4.9-1.81-11.1,2.29-14.85C269.44,180.37,268.69,175.35,271,171.02 M271.98,232.96c1.91,2.38,4.23,4.4,6.24,6.7
		c4.33,4.7,7.9,10.06,12.41,14.59c1.99-3.16,4.4-6.22,5.29-9.92c0.44,0.03,1.33,0.1,1.77,0.13c0.94-2.25,1.94-4.48,2.95-6.69
		c-8.01-4.46-15.55-9.77-23.76-13.86l-0.48-1.41C274.29,225.69,273.08,229.34,271.98,232.96 M304.41,238.53
		c1.82,1.19,3.9,2.29,4.71,4.46c1.65,3.88,4.45,7.08,7,10.38c0.77-5.15-0.53-10.35-2.32-15.15c-1.54-2.24-1.51-4.97-1.82-7.56
		C310.04,233.79,307.82,236.87,304.41,238.53 M261.97,236.88c-3.34,0.31-6.61,1.14-9.74,2.32c-4.4,1.84-9.63,1.58-13.43,4.79
		c-1.7,1.75-2.48,4.15-3.82,6.15c-1.58,2.65-4.02,4.83-4.93,7.84c-1.09,5.67,0.52,11.5-0.8,17.15c-1.01,6.29-4.25,12.35-2.86,18.84
		c-1.53,4.64,3.96,7.53,2.92,12.14c0.51,0.18,1.52,0.54,2.02,0.72c1.38,2.23,3.76,3.57,5.09,5.84c1.22,2.02,2.93,3.67,4.75,5.17
		c2.71,2.36,4.38,5.57,6.63,8.32c2.6,3.23,6.93,3.85,10.55,5.37c0.73,1.95,1.57,3.85,2.49,5.72c3.73,1.06,7.67,1.55,11.44,0.31
		c2.53,0.34,5.13,1.01,7.69,0.47c7.2-2.13,14.96-2,21.94-4.97c5.47-2.08,10.2-5.92,16.01-7.14c6.05-1.58,12.98-0.89,18.3-4.6
		c-0.17-3.97,0.16-8.15-1.69-11.81c0.37-3.39-0.81-7.24-3.91-8.99c-5.5-1.02-11.14-0.18-16.69-0.62c-1.96-1.13-3.53-3.06-5.88-3.4
		c-3.61-0.81-7.75-2.09-11.08,0.14c-3.49,1.12-5.43-4.19-9.05-2.77c-5.21,1.62-11.11,1.09-15.56-2.22
		c-2.88-3.44-5.25-7.29-8.15-10.73c3.4,2.01,6.21,4.89,8.94,7.71c0.09-2.95-0.26-5.88-1.01-8.73c-1.12-4.57-1.02-9.33-0.63-13.99
		c0.31,5.09-0.22,10.27,1.34,15.21c1.24,3.48-0.66,7.89,2.41,10.59c2.93,4.17,8.55,2.55,12.74,1.82c2.91-1.09,5.21,1.42,7.5,2.76
		c4.41-2.93,9.34-0.9,13.91,0.37c-0.6-5.62-1.15-11.27-2.84-16.69c-2.22-7.28-3.42-14.81-5.34-22.16c-0.9-3.16,0.82-6.2,1.64-9.18
		c-1.65-1.18-3.27-2.39-4.81-3.7c-0.64,0.23-1.28,0.47-1.91,0.71c-1.56,3.68-3.61,7.14-6,10.34c-3.07-3.3-6.17-6.61-8.62-10.41
		c-2.92-4.51-6.71-8.38-10.45-12.21C268,234.46,265.37,236.87,261.97,236.88 M314.55,238.53c0.68,2.83,1.48,5.64,1.91,8.52
		c0.49,2.9-0.6,6.02,0.84,8.76c1.95,4.3,3.86,8.64,6.18,12.77c5.02,10.33,8.68,21.35,10.41,32.72c6.96,0.62,14.21,0.25,20.74,3.15
		c1.84,1.23,2.34,3.51,3.14,5.43c-1.16,0.78-2.16,1.85-3.5,2.33c-2.56,0.08-5.32-0.75-7.72,0.48c-3.1,1.53-6.15,3.17-9.32,4.56
		c-0.59,2.19-0.42,5.87-3.39,6.22c-8.23,1.81-17.01,1.95-24.33,6.61c0.85,2.12,1.81,4.2,3.07,6.12c-0.25,2.8-0.47,5.6-0.72,8.41
		c-1.81-0.18-3.63-0.36-5.43-0.53c1.01,1.63,0.82,4.98,3.41,5.04c5.03-0.26,10-1.3,15.05-1.25c4.88,0.17,9.68,1.19,14.47,2.07
		c5.2-0.23,10.4-0.49,15.61-0.52c4.75-0.54,9.15-2.78,13.94-3.1c5.09-0.54,10.64-0.38,15.08-3.31c5.01-12.25,1.02-25.79-3.28-37.65
		c-3.17-6.16-4.55-13.05-7.82-19.16c-1.56-2.73-1.3-5.98-2.15-8.91c-1.01-2.46-3.47-3.83-4.92-5.97c-1.57-3.65-1.11-8.26-4.22-11.15
		c-1.98-2.03-2.85-4.87-4.85-6.88c-3.75-1.26-6.71-4.55-10.86-4.52c-3.13-0.08-5.98-1.43-8.94-2.27c-4.05-0.95-8.71,1.74-12.33-1.06
		C321.29,243.1,318.1,240.55,314.55,238.53z"/>
	<path stroke="#000000" stroke-width="0.0938" d="M942.12,226.16c7-6.2,17.01-6.8,25.89-6.11c6.89,0.37,12.67,4.41,18.62,7.44
		c5.27,3.02,10.79,6.28,14.21,11.47c1.8799,3.13,2.75,6.72,3.77,10.19c-3.94-2.75-6.5-7.17-6.24-12.05c-0.87,0-2.61,0.01-3.49,0.01
		c0.28,6.07,4.29,10.95,9.35,13.93c0.34-0.27,1.03-0.79,1.37-1.06c2.91,2.03,6.19,3.4,9.41,4.86c-3.46-0.9-6.81-2.15-10.08-3.57
		c0.71,1.94,1.44,3.87,2.21,5.8c-1.3-0.61-2.58-1.23-3.84-1.84c-0.03,1.02-0.04,2.03-0.04,3.06c2.63,0.7,4.88,2.21,6.74,4.21
		c-0.26-1.07-0.79-3.22-1.05-4.29c4.11,3.68,5.4,9.49,4.72,14.8c-0.56-3.53-1.73-6.9-3.34-10.07c-0.31,4.1-0.28,8.42-2.22,12.17
		c-1.63,3.03-2.53,6.42-2.48,9.88c-0.08,3-0.26,7.25-3.83,8.16c0.01,0.56,0.04,1.67,0.05,2.23c-4-5.45-8.16-10.78-12.17-16.22
		c-1.19,2.45-2.41,5-4.62,6.7c-1.73,1.15-1.46,3.44-2.02,5.21c-1.04,5.87-3.66,11.27-6.2599,16.59
		c-6.96,14.53-19.67,25.61-25.69,40.65c-2.92-3.98-2.22-9.28-3.4301-13.85c-1.86-8.03-2.02-16.28-2.8199-24.45
		c-0.29-6.63,3.25-12.58,4.36-18.96c-0.13-3.71-0.59-7.4-0.81-11.1c-4.4,1.71-8.71,3.86-12.35,6.91c-2.85,2.32-4.35,5.77-6.6,8.6
		c-3.55,4.77-7.88,8.86-12.19,12.92c4.93,0.53,9.81-0.64,14.73-0.8c3.08,0.31,6.42,2.25,7.28,5.41c-0.25,3-0.96,5.95-1.17,8.96
		c-0.61,5.13-0.67,10.76-3.9901,15.03c-2.48,3.14-3.8,7.74-1.13,11.2c5.65,8.3,11.5601,16.43,17.4901,24.52
		c0.22,0.05,0.65,0.15,0.86,0.21c5.06-13.71,8.38-28.44,17.08-40.46c3.97-6.36,8.46-12.45,11.66-19.25c1.25-2.52,1.24-7,4.91-7.14
		c7.98-0.46,15.9901-0.75,23.98-1.35c-1.95-2.62-3.95-5.19-5.88-7.81c7.9,1.09,15.78,2.82,23.2,5.8c7.22,2.87,13.5,9.35,14.08,17.39
		c0.52,13.36,2.42,26.61,3.6901,39.91c1.5399,16.36,2.99,32.73,4.27,49.12c0.98,11.27,0.99,22.6,1.75,33.89
		c0.62,11.31,1.33,22.62,1.8799,33.94c0.25,4.62,2.04,8.95,3.8101,13.17c-0.9399,0.11-2.8101,0.32-3.74,0.43
		c3.6899,4.3,3.6799,10.17,3.7,15.52c0.23,5.05-4.26,8.28-7.5499,11.37c-1.51-0.16-3.01-0.3-4.5-0.44
		c-1.86,3.68-1.9701,8.02-4.2001,11.54c-1.49,2.27-4.34,2.87-6.76,3.59c3.2001,11.3,5.12,23.13,3.27,34.85
		c-1.0599,5.71,4.51,9.64,5.25,15.04c3.11,13.48,7.55,26.58,11.23,39.91c2.1101,7.16,3.02,14.58,4.28,21.92
		c3.24,19.65,5.6901,39.4301,7.73,59.25c0.92,5.55-2.62,11.22-0.1899,16.64c2.59,5.94,4.21,12.42,8.15,17.68
		c2.1,3.24,4.7,6.56,4.83,10.58c-0.41,2.28-3,2.68-4.84,3.21c-6.37,1.21-12.9,1.3-19.35,1.23c-4.03,0.07-7.9701-3.33-8.1201-7.41
		c0.13-4.07,1.4601-8.14,0.5-12.2c-0.8799-3.87-1.3999-8.23-4.25-11.21c-4.5099-0.33-9.0499-0.35-13.5199-1.05
		c-1.9701-10.51-4.17-20.99-6.9-31.33c-6.27-20.38-9.6-41.48-14.37-62.23c-2.7-13.18-6.71-26.02-9.9901-39.06
		c-3.06-11.68-5.9-23.42-9.37-34.99c-3.05-10.55-8.82-19.9901-12.96-30.1c-4.38-10.66-8.56-21.39-12.73-32.12
		c-0.83,5.68-0.85,11.51-2.53,17.03c-3.85,10.32-4.18,21.48-5.63,32.29c-2.84,24.59-6.55,49.15-7.39,73.92
		c2.05,27.63,2.39,55.35,2.92,83.05c0.03,6.02,0.16,12.05-0.06,18.08c0.1801,4.56-4.27,7.51-4.8,11.93
		c-0.41,5.26,0.19,10.55,0.3,15.83c-1.3199-0.11-2.62-0.21-3.91-0.29c-0.64-4.86-1.35-10.35-5.53-13.56
		c-1.86,3.4-2.14,7.26-2.1,11.06c0.03,3.65-2.07,7.8-6.04,8.25c-6.43,0.78-12.96,1.03-19.42,0.48c-2.92-0.28-6.27-1.19-7.77-3.95
		c-0.83-2.07,1.14-3.68,2.63-4.72c3.91-2.71,8.15-5.62,10.02-10.18c0.84-2.86,1.17-5.84,1.64-8.77c0.66-2.71-1.48-4.97-1.52-7.62
		c-1.16-12.84-1.28-25.74-1.93-38.61c-0.39-12.78-4.49-25.14-4.52-37.95c0.02-16.98,0.24-33.97-0.23-50.95
		c-0.1-9.08-1.8-18.03-2.42-27.07c-1.58-18.95-3.44-37.93-3.39-56.97c-0.25-11.55-0.48-23.1-0.86-34.65
		c-1.33-0.3-2.65-0.59-3.96-0.87c4.06-4.58,5.98-10.51,7.3-16.37c1.52-7.01,4.37-13.63,7.19-20.19c-5.01-1.87-10.1,0.76-15.21,0.31
		c-0.54,0.46-1.64,1.37-2.18,1.82c-2.4-0.69-4.76-1.84-6.05-4.07c-3.81-5.99-4.81-13.18-7.19-19.76
		c-4.4901-11.53-10.79-22.36-14.14-34.32c-1.07-2.69,0.9-5.01,2.18-7.18c11.47-18.11,23.64-35.76,35.43-53.67
		c2.7-4.28,6.55-8.05,11.61-9.26c-1.58-2.34-3.04-4.84-3.59-7.64c-1.29-4.71,0.42-9.49,1.2-14.1c-2.28,2.16-2.9,5.39-5.04,7.62
		c0.48-4.75,2.86-9.09,6.42-12.22c-0.21,0.89-0.63,2.67-0.84,3.57c2.33-1.43,4.85-2.51,7.5-3.19c-0.02-1-0.02-1.99,0-2.98
		c-2.03,0.64-4.04,1.32-6.03,2l0.83-1.93c0.29-0.65,0.87-1.94,1.16-2.59c-2.2,0.16-4.37,0.33-6.56,0.39
		c2.78-0.83,5.66-1.47,8.58-1.2c3.69-1.41,8.01-3.98,8.72-8.21c-0.69-0.06-2.06-0.18-2.75-0.25c-1.44,3.05-3.67,5.67-6.63,7.33
		c1.43-3.5,3.15-6.86,4.93-10.19c-0.84,0.04-2.52,0.14-3.36,0.19c0.99-0.89,2.13-1.44,3.41-1.64c4.81,0.02,7.29-4.9,9.4-8.51
		c-1.21-0.23-2.4-0.45-3.59-0.67c-0.98,2.81-2.32,5.52-4.44,7.65C928.44,246.38,932.53,234.15,942.12,226.16 M898.14,370.15
		c-1.56,2.8-3.69,5.49-4.14,8.74c0.97,3.53,3.19,6.59,4.09,10.15c0.68,3.21-1.13,6.86,0.9,9.78c2.97,4.35,4.8,9.3,6.73,14.16
		c1.8701-0.83,3.88-1.48,5.59-2.66c1.73-1.46,2.57-3.87,4.75-4.81c4.33-1.59,4.99-6.87,6.66-10.59c-0.71-4.3-2.14-8.46-2.52-12.82
		c-0.41-3.17,0.38-6.43-0.55-9.53c-2.19-7.05-5.22-13.92-9.6801-19.85C905.61,358.22,901.9,364.23,898.14,370.15 M1006.94,367.11
		c-1.15,6.88-2.56,13.86-1.98,20.87c1.39,7.32,4.72,14.09,7.5,20.96c1.09-6.63,1.61-13.4,1.25-20.11
		C1012.57,381.31,1009.83,374.11,1006.94,367.11 M1020.4,442.09c-0.45,6.11,1.53,11.9,2.58,17.83
		C1025.3101,453.81,1022.94,447.66,1020.4,442.09 M1024.22,468.86c-0.45,5.65,0.5801,11.24,2.3301,16.59
		C1030.3199,480.29,1025.5601,474.12,1024.22,468.86 M1032.24,517.78c0.08,4.02-0.27,8.08,0.37,12.08c0.47-0.57,1.42-1.7,1.89-2.26
		c0.23-3.73,0.47-7.46,1-11.16C1034.4,515.34,1033.28,517.36,1032.24,517.78z"/>
	<path stroke="#000000" stroke-width="0.0938" d="M802.97,307.02c10.5-2.68,20.86-6.02,31.4901-8.15c-0.73,0.67-1.55,1.17-2.45,1.49
		c-31.61,8.69-63.74,16.26-93.84,29.52c-3.72,1.42-5.02,5.41-6.91,8.52c-0.22-4.51,3.22-8.34,7.2-9.94
		C759.28,319.42,781.11,313,802.97,307.02z"/>
	<path stroke="#000000" stroke-width="0.0938" d="M734.14,336.32c1.19-1.76,2.43-3.98,4.77-4.23c5.08-0.65,9.45,2.74,12.75,6.19
		c6.78,7.33,10.41,16.85,13.89,26.05c3.44,9.76,7.22,19.44,9.66,29.53c3.23,13.03,5.12,26.35,7.02,39.63
		c0.22,3.39,0.14,7.78-3.02,9.86c-3.4,1.17-5.95-1.73-8.64-3.18c0.34-1.9-0.86-3.59-1.76-5.14c-0.2-1.45-0.06-3.04-1.03-4.24
		c-0.02-0.88-0.05-2.65-0.07-3.54c-0.29,1.06-0.89,3.16-1.18,4.22c-0.21-1-0.63-3.01-0.84-4.01c-14.83,6.08-29.17,13.26-43.44,20.52
		c-8.64,3.52-13.73,11.82-19.48,18.69c1.71,5.96,1.8,12.6-0.75,18.34c-2.04,4.69-7.26,6.6-11.86,7.76
		c-0.69-0.16-2.08-0.47-2.77-0.63c5.24-1.06,11.72-2.58,13.79-8.21c3.22-8.54,1.85-19.56-5.38-25.69c-3.59-3.29-7.14-6.61-10.7-9.91
		c-9.35-8.78-18.81-17.43-28.0699-26.3c-3.52-3.59-8.46-5.01-12.85-7.18c-8.1-3.75-16.21-7.55-23.81-12.24
		c-3.04-1.82-5.69-4.23-7.84-7.02c-1.3101,0.41-2.61,0.83-3.9,1.26c-2.45-0.01-4.78-0.69-7.01-1.61
		c-4.95,4.32-11.11,6.61-16.93,9.34c-6.39,8.15-14.06,15.17-22.02,21.76c-8.29,4.4-17.51,8.41-27.11,7.62
		c-0.73,0.44-1.44,0.88-2.15,1.33c-0.3799,10.57-1.06,21.14-2.2599,31.65c-1.17,10.44-4.06,20.6-7.7,30.42
		c2.71,2.06,4.82,4.77,7.5,6.86c2.54,1.98,5.92,2.15,9.01,2.05c7.69-0.39,15.05-2.81,22.45-4.74c5.3-1.44,10.83-3.14,16.36-1.83
		c4.19,1.11,8.7,0.79,12.74,2.53c-5.47-1.56-11.16-0.8-16.73-0.57c-1.38,0.98-3.0601,1.28-4.65,1.67l0.63-0.26
		c1.23-0.77,2.4-1.63,3.54-2.55c-13.36,0.75-25.88,8.43-39.5,6.58c-5.19-0.65-7.62-5.78-11.7-8.32c-2.21,4.62-3.96,9.45-6.14,14.09
		c3.82,3.35,6.15,8.18,10.56,10.89c-0.42,0.07-1.25,0.2-1.67,0.26c-3.71-2.54-5.92-6.57-8.91-9.82
		c-8.25,13.44-12.91,29.16-23.34,41.27c-2.73,2.9901-5.66,6.28-9.71,7.35c-5.39,0.43-10.54-1.85-15.89-2.12
		c-26.98-1.29-53.94-2.86-80.92-4.18c-0.19-64.74-0.02-129.47-0.08-194.21c27.64,0.47,55.29,0.92,82.94,1.44
		c17.39,1.32,34.78,2.73,52.12,4.7c9.98-6.63,21.46-10.26,32.35-15.09c6.7-3.51,12.71-8.99,20.4901-9.91
		c8.95-0.62,18.4-0.84,26.73,2.99c2.52,2.7,4.44,5.89,6.64,8.84c8.08-1.56,16.33-3.42,24.6-2.56c9.37,1.54,18.74,3.13,28.14,4.49
		c7.55,1.22,15.4,1.58,22.91-0.08c15.74-5.74,31.77-10.78,46.99-17.84C731.65,337.96,732.73,336.92,734.14,336.32 M735.43,337.27
		c2.61-0.98,5.43-1.96,7.13-4.34C739.51,332.68,735.81,333.69,735.43,337.27 M683.9,358.35c-5.51,1.11-11.21,1.23-16.8,0.79
		c-12.1-1.39-24.06-3.78-36.11-5.47c-13.58-0.14-27.37,2.99-39.1,9.95c-9.22,5.8-19.03,10.65-27.91,16.99
		c-3.28,2.18-5.26,5.66-7.95,8.44c-4.26,4.48-8.95,8.57-12.9,13.34c-2.18,2.48-3.07,5.73-4.58,8.61c4.38-0.25,8.77,0.06,13.11,0.59
		c1.4901,1.54-0.18,3.8-0.78,5.43c-3.42,5.65-7.59,11.08-13.01,14.93l-0.74,1.13c7.38,0.04,14.37-2.69,21.02-5.63
		c5.41-2.3,9.22-6.95,13.63-10.64c4.72-4,8.5099-8.9,12.5-13.56c6.3199-2.22,12.35-5.24,17.48-9.61c3.44,2.92,8.04,1.98,11.84,0.37
		c1.2401,4,5.12,6.1,8.4,8.26c9.97,5.96,20.66,10.59,31.19,15.47c3.36,1.39,5.67,4.3,8.26,6.72c12.04,11.68,24.6,22.81,36.98,34.11
		c1.91,1.8,2.68,4.41,3.87,6.68c3.31-4.29,6.9-8.36,10.56-12.36c3.77-4.25,9.39-5.92,14.22-8.63c16.96-8.41,33.9-17.29,52.2-22.49
		c-2.35-17.24-6.22-34.3-12.51-50.54c-5.02-13.37-9.31-28.75-21.89-37.07C725.27,343.94,704.54,351.12,683.9,358.35 M570.98,345.2
		l-0.06,0.69l-0.74-0.26c-5.56,1.83-10.38,5.47-15.3,8.56l-0.16,0.73l-0.6-0.25c-6.24,1.66-11.94,4.9-18.01,7.08
		c-4.6,1.55-8.5,4.5-12.84,6.6c3.18,2.33,5.23,5.8,6.28,9.57c3.58,12.22,3.65,25.07,4.29,37.68c3.09-3.53,4.83-7.87,6.92-11.98
		c4.48-6.14,10.39-11.03,15.6-16.52l-0.08-0.07c4.08-6.04,10.36-9.89,16.53-13.48l-0.02-0.15c11.47-6.01,21.93-14.06,34.4901-17.82
		c-2.08-2.85-3.82-6-6.32-8.49C591.59,343.28,580.65,342.87,570.98,345.2 M538.16,411.52c-4.33,6.4-9.05,13.45-8.91,21.47
		c1.42,0.88,3.19,1.01,4.77,1.54c1.24-0.91,2.55-1.74,3.85-2.58c5.46-5.34,11.34-10.93,13.9-18.32c-0.23-0.36-0.7-1.08-0.94-1.45
		C546.72,411.13,542.37,411.22,538.16,411.52 M768.46,426.68c1.13,4.06,1.65,8.37,3.61,12.16c1.36,2.5,4.91,4.89,7.54,2.73
		c3.11-5.74,0.42-12.39-0.05-18.44C775.72,423.86,772.02,425.1,768.46,426.68z"/>
	<path stroke="#000000" stroke-width="0.0938" d="M783.9,446.69c16.65-5.59,33.29-11.48,50.43-15.41c-1.3,1.72-3.58,1.82-5.46,2.45
		c-16.18,4.24-31.94,9.86-47.82,15.01c-5.69-0.04-11.5-4.47-12.23-10.21c0.44,0.41,1.31,1.23,1.75,1.64
		C772.27,445.32,778.72,449.24,783.9,446.69z"/>
	<path stroke="#000000" stroke-width="0.0938" d="M767.34,434.87c-0.85-0.62-1.41-3.13-0.15-3.54
		C768.19,432.01,768.54,434.29,767.34,434.87z"/>
	<path stroke="#000000" stroke-width="0.0938" d="M607.17,539.37c0.45-0.1,1.36-0.3,1.81-0.4c0.35,0.16,1.05,0.48,1.4,0.64
		c-0.59-0.03-1.78-0.1-2.37-0.13c-3.53,1.3-7.71,0.67-10.89,2.67c-1.1,2.16-0.46,4.94,1.04,6.7599c2.19,1.26,4.84,0.59,7.25,0.59
		l1.57,1.32c-1.99-0.2-3.94-0.55-5.9-0.9l0.42,1.26l-0.53-0.24c-1.27-0.68-2.7599-0.96-3.84-1.92c-0.6-2.51-1.58-5.46-0.42-7.9
		C600.18,540.49,603.75,540.36,607.17,539.37z"/>
</g>
<g id="_x23_cce7fdff">
	<path fill="#CCE7FD" stroke="#CCE7FD" stroke-width="0.0938" d="M994.88,237.11c0.88,0,2.62-0.01,3.49-0.01
		c-0.26,4.88,2.3,9.3,6.24,12.05c0.25,0.21,0.75,0.62,0.99,0.83c-0.34,0.27-1.03,0.79-1.37,1.06
		C999.17,248.06,995.16,243.18,994.88,237.11z"/>
</g>
<g id="_x23_cbe6feff">
	<path fill="#CBE6FE" stroke="#CBE6FE" stroke-width="0.0938" d="M927.55,249.59c1.19,0.22,2.38,0.44,3.59,0.67
		c-2.11,3.61-4.59,8.53-9.4,8.51c0.34-0.38,1.03-1.15,1.37-1.53C925.23,255.11,926.57,252.4,927.55,249.59z"/>
	<path fill="#CBE6FE" stroke="#CBE6FE" stroke-width="0.0938" d="M912.78,277.47c0.23-0.97,0.92-1.72,1.46-2.53l-0.83,1.93
		c1.9901-0.68,4-1.36,6.03-2c-0.02,0.99-0.02,1.98,0,2.98c-2.65,0.68-5.17,1.76-7.5,3.19C912.15,280.14,912.57,278.36,912.78,277.47
		z"/>
</g>
<g id="_x23_b7b7b8ff">
	<path fill="#B7B7B8" stroke="#B7B7B8" stroke-width="0.0938" d="M350.48,290.81c0.79,3.43,0.8,7-0.03,10.43
		C349.8,297.79,349.79,294.25,350.48,290.81z"/>
</g>
<g id="_x23_3a4755ff">
	<path fill="#3A4755" stroke="#3A4755" stroke-width="0.0938" d="M735.43,337.27c0.38-3.58,4.08-4.59,7.13-4.34
		C740.86,335.31,738.04,336.29,735.43,337.27z"/>
</g>
<g id="_x23_ffd9b4ff">
	<path fill="#FFD9B4" stroke="#FFD9B4" stroke-width="0.0938" d="M683.9,358.35c20.64-7.23,41.37-14.41,60.98-24.19
		c12.58,8.32,16.87,23.7,21.89,37.07c6.29,16.24,10.16,33.3,12.51,50.54c-18.3,5.2-35.2401,14.08-52.2,22.49
		c-4.83,2.71-10.45,4.38-14.22,8.63c-3.66,4-7.25,8.07-10.56,12.36c-1.19-2.27-1.96-4.88-3.87-6.68
		c-12.38-11.3-24.94-22.43-36.98-34.11c-2.59-2.42-4.9-5.33-8.26-6.72c-10.53-4.88-21.22-9.51-31.19-15.47
		c-3.28-2.16-7.16-4.26-8.4-8.26c-3.8,1.61-8.4,2.55-11.84-0.37c-5.13,4.37-11.16,7.39-17.48,9.61
		c-3.9901,4.66-7.78,9.56-12.5,13.56c-4.41,3.69-8.22,8.34-13.63,10.64c-6.65,2.94-13.64,5.67-21.02,5.63l0.74-1.13
		c5.42-3.85,9.59-9.28,13.01-14.93c0.6-1.63,2.27-3.89,0.78-5.43c-4.34-0.53-8.73-0.84-13.11-0.59c1.51-2.88,2.4-6.13,4.58-8.61
		c3.95-4.77,8.64-8.86,12.9-13.34c2.6899-2.78,4.67-6.26,7.95-8.44c8.88-6.34,18.69-11.19,27.91-16.99
		c11.73-6.96,25.52-10.09,39.1-9.95c12.05,1.69,24.01,4.08,36.11,5.47C672.69,359.58,678.39,359.46,683.9,358.35z"/>
	<path fill="#FFD9B4" stroke="#FFD9B4" stroke-width="0.0938" d="M516.96,512.87c2.18-4.64,3.93-9.47,6.14-14.09
		c4.08,2.54,6.51,7.67,11.7,8.32c13.62,1.85,26.14-5.83,39.5-6.58c-1.14,0.92-2.31,1.78-3.54,2.55l-0.63,0.26
		c-0.33,0.07-0.99,0.21-1.31,0.28c-0.49,0.08-1.46,0.25-1.95,0.33l-1.12,0.2c-2.08,4.22,0.19,9.82,4.26,11.91
		c4.64-0.07,8.89-2.3,13.4-3.2c-9.34,6.29-20.65,8.26-31.31,11.19c-5.38,1.16-10.69,2.76-16.15,3.55c-3.07-0.47-5.7-2.44-8.43-3.83
		C523.11,521.05,520.78,516.22,516.96,512.87z"/>
	<path fill="#FFD9B4" stroke="#FFD9B4" stroke-width="0.0938" d="M569.94,521.12c6.41-2.39,13.34-3.48,20.17-3
		c1.55,0.08,2.96,0.8,4.38,1.39c-3.5,0.64-7.39,0.5-10.45,2.51c-2.34,2.46-0.43,6.38,1.13,8.79c3.21,2.5,7.66,0.89,11.41,1.5
		c-1.87,0.87-3.69,1.98-5.74,2.32c-8.65,0.89-17.17,2.71-25.75,4.13c-5.57,1.25-11.34,1.63-17.01,1.04
		c-5.13-1.51-9.04-5.6-11.18-10.39C548.02,527.11,559.08,524.46,569.94,521.12z"/>
	<path fill="#FFD9B4" stroke="#FFD9B4" stroke-width="0.0938" d="M587.93,536.8c6.46-1.52,13.07,0.76,19.24,2.57
		c-3.42,0.99-6.99,1.12-10.46,1.75c-1.16,2.44-0.18,5.39,0.42,7.9c1.08,0.96,2.57,1.24,3.84,1.92c-10.64-0.21-21.41,4.33-31.92,0.89
		c-5.09-1.25-8.65-5.43-11.18-9.76C567.83,540.01,577.9,538.51,587.93,536.8z"/>
</g>
<path fill="#FFCDA6" stroke="#FFCDA6" stroke-width="0.0938" d="M607.28,355.58c-2.0801-2.85-3.8201-6-6.3201-8.49
	c-9.3699-3.81-20.3099-4.22-29.98-1.89l-0.0601,0.69l-0.74-0.26c-5.5599,1.83-10.3799,5.47-15.2999,8.56l-0.16,0.73l-0.6-0.25
	c-6.24,1.66-11.9401,4.9-18.01,7.08c-4.6,1.55-8.5,4.5-12.84,6.6c3.1799,2.33,5.23,5.8,6.28,9.57
	c3.58,12.22,3.6499,25.07,4.29,37.68c3.0898-3.53,4.8298-7.87,6.9199-11.98c4.48-6.14,10.39-11.03,15.6-16.52l-0.08-0.07
	c4.08-6.04,10.36-9.89,16.53-13.48l-0.02-0.15C584.26,367.39,594.72,359.34,607.28,355.58z"/>
<g id="_x23_c5e3ffff">
	<path fill="#C5E3FF" stroke="#C5E3FF" stroke-width="0.0938" d="M1006.94,367.11c2.89,7,5.63,14.2,6.77,21.72
		c0.36,6.71-0.16,13.48-1.25,20.11c-2.78-6.87-6.11-13.64-7.5-20.96C1004.38,380.97,1005.79,373.99,1006.94,367.11z"/>
</g>
<g id="_x23_5d5e5fff">
	<path fill="#5D5E5F" stroke="#5D5E5F" stroke-width="0.0938" d="M242.16,389.09C242.71,389.72,242.71,389.72,242.16,389.09z"/>
</g>
<g id="_x23_feebdcff">
	<path fill="#FEEBDC" stroke="#FEEBDC" stroke-width="0.0938" d="M538.16,411.52c4.21-0.3,8.56-0.39,12.67,0.66
		c0.24,0.37,0.71,1.09,0.94,1.45c-2.56,7.39-8.44,12.98-13.9,18.32c-1.3,0.84-2.61,1.67-3.85,2.58c-1.58-0.53-3.35-0.66-4.77-1.54
		C529.11,424.97,533.83,417.92,538.16,411.52z"/>
	<path fill="#FEEBDC" stroke="#FEEBDC" stroke-width="0.0938" d="M570.13,503.33c1.59-0.39,3.27-0.69,4.65-1.67
		c5.5699-0.23,11.2599-0.99,16.73,0.57c-0.27,1.51-0.52,3.02-0.74,4.54c-2.23,1.68-4.37,3.46-6.31,5.47
		c-0.3-0.21-0.89-0.64-1.19-0.85c-3.49,1.18-6.95,2.53-10.55,3.33c-1.3199,0.22-2.9,0.65-3.78-0.65c-2.69-2.66-3.61-6.65-2.07-10.13
		c0.49-0.08,1.46-0.25,1.95-0.33C569.14,503.54,569.8,503.4,570.13,503.33z"/>
	<path fill="#FEEBDC" stroke="#FEEBDC" stroke-width="0.0938" d="M587.96,521.62c7.24-1.36,14.91-2.68,22.12-0.5
		c0.13,1.82,0.08,3.66-0.23,5.48c-7.21,2.78-14.89,5.78-22.75,4.22c-2.15-1.05-2.56-3.74-3.02-5.84
		C583.39,522.6,586.31,522.04,587.96,521.62z"/>
	<path fill="#FEEBDC" stroke="#FEEBDC" stroke-width="0.0938" d="M608.01,539.48c0.59,0.03,1.78,0.1,2.37,0.13
		c2.58,0.95,7.89,1.11,6.51,5.18c-3.02,3.15-7.67,3.13-11.48,4.71c-2.41,0-5.06,0.67-7.25-0.59c-1.5-1.8199-2.14-4.6-1.04-6.7599
		C600.3,540.15,604.48,540.78,608.01,539.48z"/>
</g>
<g id="_x23_405060ff">
	<path fill="#405060" stroke="#405060" stroke-width="0.0938" d="M768.46,426.68c3.56-1.58,7.2599-2.82,11.1-3.55
		c0.47,6.05,3.16,12.7,0.05,18.44c-2.63,2.16-6.18-0.23-7.54-2.73C770.11,435.05,769.59,430.74,768.46,426.68z"/>
</g>
<g id="_x23_141415ff">
	<path fill="#141415" stroke="#141415" stroke-width="0.0938" d="M768.1,436.23C771.28,435.92,766.95,439.28,768.1,436.23z"/>
</g>
<g id="_x23_c5e3feff">
	<path fill="#C5E3FE" stroke="#C5E3FE" stroke-width="0.0938" d="M1020.4,442.09c2.54,5.57,4.91,11.72,2.58,17.83
		C1021.93,453.99,1019.95,448.2,1020.4,442.09z"/>
</g>
<g id="_x23_9a9180ff">
	<path fill="#9A9180" stroke="#9A9180" stroke-width="0.0938" d="M637.93,461.78c2.05,0.16,3.74,1.38,5.34,2.56
		c5.3,4.18,10.87,8,16.32,11.98c6.23,4.38,10.8199,10.84,17.72,14.33c2.99,1.65,6.53,1.12,9.8,1.42l0.28,0.07
		c0.69,0.16,2.08,0.47,2.77,0.63c-3.9,1.38-8.08,1.32-12.04,0.22c-0.15,5.58-0.94,11.39-3.85,16.26c-0.73,1.29-1.92,2.22-3.23,2.87
		c-5.21,2.68-11.09,3.81-16.91,4.02c0.5,5.45-0.96,11.14-4.77,15.2c-4.91,4.91-12.53,6.45-19.16,4.73
		c-0.32,3.09-0.59,6.87-3.46,8.75c-4.04,2.61-8.68,4.05-13.12,5.8c-1.34,0.76-2.7,0.09-3.99-0.34c-5.79,2.08-11.99,2.22-18.01,3.24
		c-7.86,1.21-16.17,2.85-23.86-0.16c-5.62-1.56-9.44-6.35-11.98-11.34c-8.66,1.41-18.0601-3.79-20.53-12.4
		c-3.63-1.29-6.93-3.3-10.06-5.5l0.66-0.1c0.42-0.06,1.25-0.19,1.67-0.26c2.73,1.39,5.36,3.36,8.43,3.83
		c5.46-0.79,10.77-2.39,16.15-3.55c10.66-2.93,21.97-4.9,31.31-11.19c-4.5099,0.9-8.7599,3.13-13.4,3.2
		c-4.07-2.09-6.34-7.69-4.26-11.91l1.12-0.2c-1.54,3.48-0.62,7.47,2.07,10.13c0.88,1.3,2.46,0.87,3.78,0.65
		c3.6-0.8,7.0601-2.15,10.55-3.33c0.3,0.21,0.89,0.64,1.19,0.85c1.94-2.01,4.08-3.79,6.31-5.47c0.22-1.52,0.47-3.03,0.74-4.54
		c0.31,1.22,0.5,2.46,0.55,3.73c-2.31,4.67-6.35,8.36-10.98,10.71c6.3-0.2,12.71-0.29,18.85,1.31c3.53,0.85,7.13,1.37,10.73,1.88
		c0.67,2.15,0.84,4.43,0.61,6.68c-4.51,3.88-9.8,6.53-15.53,8.12c6.26,1.35,12.73,2.11,18.57,4.91c1.47,0.76,3.57,1.41,3.8,3.36
		c0.24,2.45-2.2,3.84-3.5,5.55c4.27-1.71,9.27-2.8,12.38-6.45c1.07-2.7,2.73-6.66,0.03-8.9301c-5.26-5.23-11.47-9.39-16.82-14.54
		c-3.3-3-6.94-5.59-10.6-8.14c-1.46-0.94-2.55-2.33-3.2-3.93c2.9,1.28,5.5699,3.04,8.1,4.97c6.54,4.69,12.01,10.67,18.53,15.4
		c3.05,2.31,5.65,5.14,8.1,8.07c4.32,0.13,8.9,0.3,12.8-1.88c6.72-3.2,9.67-11.61,7.96-18.59c-4.73-2.54-8.48-6.4-12.26-10.11
		c-5.24-4.49-11.11-8.19-16.61-12.36c-2.75-2.17-6.38-3.77-7.57-7.34c4.52,2.28,8.34,5.64,12.46,8.53
		c5.48,4.09,11.4,7.67,16.1201,12.69c4.33,4.09,9.36,9.54,15.98,7.95c5.1-1.19,11.92-2.21,13.86-7.91
		c1.69-4.25,2.66-8.97,1.84-13.53c-2.77-2.62-6.3-4.32-8.95-7.08c-6.41-6.95-14.63-11.75-22.12-17.38
		C642.23,466.09,639.36,464.57,637.93,461.78 M569.94,521.12c-10.86,3.34-21.92,5.99-33.04,8.29c2.14,4.79,6.05,8.88,11.18,10.39
		c5.67,0.59,11.44,0.21,17.01-1.04c8.58-1.42,17.1-3.24,25.75-4.13c2.05-0.34,3.87-1.45,5.74-2.32c-3.75-0.61-8.2,1-11.41-1.5
		c-1.56-2.41-3.47-6.33-1.13-8.79c3.06-2.01,6.95-1.87,10.45-2.51c-1.42-0.59-2.83-1.31-4.38-1.39
		C583.28,517.64,576.35,518.73,569.94,521.12 M587.96,521.62c-1.65,0.42-4.57,0.98-3.88,3.36c0.46,2.1,0.87,4.79,3.02,5.84
		c7.86,1.56,15.54-1.44,22.75-4.22c0.31-1.8199,0.36-3.66,0.23-5.48C602.87,518.94,595.2,520.26,587.96,521.62 M587.93,536.8
		c-10.03,1.71-20.1,3.21-30.06,5.27c2.53,4.33,6.09,8.51,11.18,9.76c10.51,3.44,21.28-1.1,31.92-0.89l0.53,0.24l-0.42-1.26
		c1.96,0.35,3.91,0.7,5.9,0.9l-1.57-1.32c3.81-1.58,8.46-1.56,11.48-4.71c1.38-4.07-3.93-4.23-6.51-5.18
		c-0.35-0.16-1.05-0.48-1.4-0.64c-0.45,0.1-1.36,0.3-1.81,0.4C601,537.56,594.39,535.28,587.93,536.8z"/>
</g>
<g id="_x23_c6e3feff">
	<path fill="#C6E3FE" stroke="#C6E3FE" stroke-width="0.0938" d="M1024.22,468.86c1.3401,5.26,6.1,11.43,2.3301,16.59
		C1024.8,480.1,1023.77,474.51,1024.22,468.86z"/>
</g>
<g id="_x23_c4e3ffff">
	<path fill="#C4E3FF" stroke="#C4E3FF" stroke-width="0.0938" d="M1032.24,517.78c1.04-0.42,2.16-2.44,3.26-1.34
		c-0.53,3.7-0.77,7.43-1,11.16c-0.47,0.56-1.42,1.69-1.89,2.26C1031.97,525.86,1032.3199,521.8,1032.24,517.78z"/>
</g>
<path fill="#FFCDA6" stroke="#FFCDA6" stroke-width="0.0938" d="M695.8,458.24c-3.5901-3.29-7.1401-6.61-10.7001-9.91
	c-9.35-8.78-18.8099-17.43-28.0699-26.3c-3.52-3.59-8.46-5.01-12.8501-7.18c-8.0999-3.75-16.21-7.55-23.8099-12.24
	c-3.0399-1.82-5.6901-4.23-7.84-7.02c-1.3101,0.41-2.6101,0.83-3.9,1.26c-2.4501-0.01-4.78-0.69-7.01-1.61
	c-4.9501,4.32-11.11,6.61-16.9301,9.34c-6.3899,8.15-14.0599,15.17-22.02,21.76c-8.2899,4.4-17.51,8.41-27.1099,7.62
	c-0.73,0.44-1.4401,0.88-2.1501,1.33c-0.3799,10.57-1.0599,21.14-2.2599,31.65c-1.17,10.44-4.0599,20.6-7.7001,30.42
	c2.71,2.06,4.8201,4.77,7.5,6.86c2.54,1.98,5.92,2.15,9.01,2.05c7.6901-0.39,15.05-2.81,22.45-4.74
	c5.3-1.44,10.8301-3.14,16.3601-1.83c4.1899,1.11,8.7,0.79,12.74,2.53c0.3101,1.22,0.5,2.46,0.55,3.73
	c-2.3101,4.67-6.3501,8.36-10.98,10.71c6.2999-0.2,12.71-0.29,18.8499,1.31c3.53,0.85,7.1301,1.37,10.73,1.88
	c0.6702,2.15,0.8401,4.43,0.6101,6.68c-4.51,3.88-9.8,6.53-15.53,8.12c6.26,1.35,12.73,2.11,18.5701,4.91
	c1.47,0.76,3.5699,1.41,3.7999,3.36c0.24,2.45-2.2001,3.84-3.5,5.55c4.27-1.71,9.27-2.8,12.38-6.45
	c1.0701-2.7,2.73-6.66,0.03-8.9301c-5.26-5.23-11.47-9.39-16.8201-14.54c-3.2999-3-6.9399-5.59-10.6-8.14
	c-1.46-0.94-2.5499-2.33-3.2-3.93c2.9,1.28,5.5699,3.04,8.1,4.97c6.54,4.6901,12.01,10.67,18.53,15.4
	c3.05,2.31,5.6499,5.14,8.1,8.07c4.3199,0.13,8.9,0.3,12.7999-1.88c6.7201-3.2,9.67-11.61,7.9601-18.59
	c-4.7301-2.54-8.4801-6.4-12.26-10.11c-5.24-4.49-11.11-8.19-16.61-12.36c-2.75-2.17-6.38-3.77-7.5701-7.34
	c4.52,2.28,8.3401,5.64,12.46,8.53c5.4801,4.09,11.4001,7.67,16.1201,12.69c4.33,4.09,9.36,9.54,15.98,7.95
	c5.1-1.19,11.9199-2.21,13.86-7.91c1.6901-4.25,2.66-8.97,1.84-13.53c-2.77-2.62-6.3-4.32-8.95-7.08
	c-6.41-6.95-14.63-11.75-22.12-17.38c-2.41-1.83-5.28-3.35-6.7101-6.14c2.05,0.16,3.74,1.38,5.3401,2.56
	c5.3,4.18,10.87,8,16.3201,11.98c6.23,4.38,10.8198,10.84,17.72,14.33c2.99,1.65,6.53,1.12,9.7999,1.42l0.28,0.07
	c5.24-1.0601,11.72-2.58,13.7899-8.21C704.4,475.39,703.03,464.37,695.8,458.24z"/>
</svg>
