<?xml version="1.0"?>
<svg xmlns:rdf="http://www.w3.org/1999/02/22-rdf-syntax-ns#" xmlns="http://www.w3.org/2000/svg" xmlns:cc="http://creativecommons.org/ns#" xmlns:xlink="http://www.w3.org/1999/xlink" xmlns:dc="http://purl.org/dc/elements/1.1/" xmlns:svg="http://www.w3.org/2000/svg" id="svg1" height="600pt" width="800pt">
  <defs id="defs3">
    <linearGradient id="linearGradient4776" y2="381.12" gradientUnits="userSpaceOnUse" x2="714.12" gradientTransform="translate(-2e-6,-4e-6)" y1="381.12" x1="104.1">
      <stop id="stop4770" stop-color="#fff" offset="0"/>
      <stop id="stop4772" stop-color="#fff" stop-opacity="0" offset="1"/>
    </linearGradient>
  </defs>
  <path id="path4929" d="m105.6 193.27c53.27-5.43 106.54-10.86 159.81-16.29 8.15-5.09 16.29-10.18 24.43-15.27 18.67-7.46 37.33-16.97 55.99-24.43 16.63-10.18 29.94-22.15 46.83-25.45 19.36-3.79 47.5-2.37 68.2 7.13 43.77 63.11 87.54 126.22 131.31 189.33 36.31 35.97 72.61 71.94 108.92 107.9 15.61 21.04 13.75 54.43 4.07 69.22-8.31 12.7-38.68 21.04-58.02 13.23 1.35 17.31-2.38 37.67-11.2 48.86-11.88 7.81-32.91 14.6-47.84 11.2 4.07 14.59-2.7 34.93-12.22 43.77-9.82 9.14-23.41 14.93-45.8 10.18-1.36 7.47-1.26 17.05-6.24 21.68-9.27 8.61-23.62 12.25-36.52 18.02-183.22-96.02-249.39-97.38-341-115.02-13.24-100.78-27.49-243.29-40.72-344.06z" fill-rule="evenodd" fill-opacity=".99899" stroke="#000" stroke-width="3" fill="#ffcaa1"/>
  <path id="path3183" d="m105.6 193.27c53.27-5.43 106.54-10.86 159.81-16.29 8.15-5.09 16.29-10.18 24.43-15.27 18.67-7.46 37.33-16.97 55.99-24.43 16.63-10.18 29.94-22.15 46.83-25.45 19.36-3.79 47.5-2.37 68.2 7.13 43.77 63.11 87.54 126.22 131.31 189.33 36.31 35.97 72.61 71.94 108.92 107.9 15.61 21.04 13.75 54.43 4.07 69.22-8.31 12.7-38.68 21.04-58.02 13.23 1.35 17.31-2.38 37.67-11.2 48.86-11.88 7.81-32.91 14.6-47.84 11.2 4.07 14.59-2.7 34.93-12.22 43.77-9.82 9.14-23.41 14.93-45.8 10.18-1.36 7.47-1.26 17.05-6.24 21.68-9.27 8.61-23.62 12.25-36.52 18.02-183.22-96.02-249.39-97.38-341-115.02-13.24-100.78-27.49-243.29-40.72-344.06z" fill="url(#linearGradient4776)" fill-rule="evenodd"/>
  <path id="path3686" d="m266.32 514.63c-7.5 8.21-15.59 30.48-18.71 43.19-0.48 1.93 5.43-1.42 7.19 0 6.16 8.41 9.06 13.08 18.72 20.87 4.79 3.87 9.96 7.36 15.11 10.8 7.09 4.72 14.09 9.67 21.6 13.67 10.49 5.6 19.81 14.51 32.39 15.12 18.82 16.37 29.78 22.93 51.82 28.79 4.59 11.65 11.38 24 23.03 27.35 10.62 3.06 28.44-0.98 40.31-4.32 10.82-3.04 24.62-15.22 30.23-20.87 6.53-6.56 4.19-17.84 0-27.35-2.82-6.41-14.21-10.86-22.31-14.4 4.48-5.58 10.62-9.58 10.8-15.11 0.4-12.47-2.9-22.3-12.24-32.39-10.07-10.89-29.47-15.63-41.75-7.2 0.77-8.67 2.37-21.13-5.76-30.23-12.35-13.83-26.43-19.42-44.62-18.72-29.6 1.16-35.93 15.52-51.11 26.64-10.66 7.81-28.86 16.35-36.71 15.11-2.23-5.72-1.46-14.11-6.47-20.87-3.12-4.21-6.06-7.15-11.52-10.08z" fill-rule="evenodd" stroke="#000" stroke-width="3" fill="#ffd8b4"/>
  <path id="path8038" d="m39.435 156.62c74.985 6.79 150.26 11.31 224.96 20.36 34.81 4.22 30.44 173.5 21.37 257.53-7.22 66.96-41.05 134.07-70.23 195.45-10.18 21.41-32.92 53.95-47.85 53.95-15.27 0-85.502-19.68-128.26-29.52l0.005-497.77z" fill-rule="evenodd" stroke="#000" stroke-width="3" fill="#8e8e8e"/>
  <path id="path13008" d="m654.26 129.14l-12.21 4.07-5.09 14.25 78.38 280.95 12.21 8.14 7.13 2.04 8.14-4.08 7.13-39.69-10.18-94.67-27.49-107.9-37.66-59.04-20.36-4.07z" fill="#404f60" stroke-opacity="0" fill-rule="evenodd"/>
  <path id="path919" d="m668.22 137.45c-12.22 3.06-35.18 13.66-47.45 12.05-13.4-1.77-38.75-9.31-69.32-14.45-31.15-5.23-47.22-16.09-75.32-17.23-32.55-1.33-41.74 19.46-58.03 35.75-30.19 20.69-75.4 40.96-84.48 55.98-9.85 16.29-25.11 54.29-25.45 69.22-8.49 16.29-21.44 31.45-22.57 49.58-1.65 26.5 32.13 29.73 47 23.71 10.88-4.41 17.64-12.89 26.46-19.34 25.06-9.48 42.2-39.11 60.06-65.15 18.57-5.98 29.22-12.68 42.75-24.43 7.35 7.54 18.29 5.72 28.51 1.02-1.38 17.4 83.61 54.23 103.83 65.15 35.5 37.36 70.28 69.69 107.95 106.34 1.35 4.07 5.59 11.74 6.95 15.81 5.43-3.05 14.34-4.77 18.44-9.16 5.4-5.79 8.15-14.25 12.22-21.38 20.36-5.43 40.72-10.85 61.07-16.28-27.14-90.94-54.29-181.87-81.43-272.81-17.3 9.5-33.89 16.12-51.19 25.62z" stroke="#000" stroke-width="3" fill="#ffd8b4"/>
  <path id="path9902" d="m632.89 147.46c-1.05-6.03 5.1-17.81 16.28-22.4 107.13-42.728 205.62-62.428 308.44-93.644l13.23 356.27c-112.95 19.04-160.76 33.05-234.13 54.97-4.24-0.09-15.69-7.02-21.37-13.23 6.45 2.03 16.53 7.07 19.34 6.1 6.03-2.07 7.01-22.33 6.11-33.59-3.85-47.78-7.38-97.48-20.36-143.53-11.79-41.83-22.89-98.83-53.95-120.11-4.5-3.08-12.19-5.42-17.31-3.9-4.04 1.2-8.22 6.11-10.18 12.04l-6.1 1.02z" fill-rule="evenodd" stroke="#000" stroke-width="3" fill="#6e88a4"/>
  <metadata>
    <rdf:RDF>
      <cc:Work>
        <dc:format>image/svg+xml</dc:format>
        <dc:type rdf:resource="http://purl.org/dc/dcmitype/StillImage"/>
        <cc:license rdf:resource="http://creativecommons.org/licenses/publicdomain/"/>
        <dc:publisher>
          <cc:Agent rdf:about="http://openclipart.org/">
            <dc:title>Openclipart</dc:title>
          </cc:Agent>
        </dc:publisher>
        <dc:title>HandshakeWithBorder</dc:title>
        <dc:date>2008-04-19T18:30:26</dc:date>
        <dc:description>edited version of the handshake by Nathan Eady</dc:description>
        <dc:source>http://openclipart.org/detail/16469/handshakewithborder-by-z</dc:source>
        <dc:creator>
          <cc:Agent>
            <dc:title>Z</dc:title>
          </cc:Agent>
        </dc:creator>
        <dc:subject>
          <rdf:Bag>
            <rdf:li>business</rdf:li>
            <rdf:li>clip art</rdf:li>
            <rdf:li>clipart</rdf:li>
            <rdf:li>friends</rdf:li>
            <rdf:li>hand</rdf:li>
            <rdf:li>hands</rdf:li>
            <rdf:li>handshake</rdf:li>
            <rdf:li>image</rdf:li>
            <rdf:li>media</rdf:li>
            <rdf:li>office</rdf:li>
            <rdf:li>outline</rdf:li>
            <rdf:li>people</rdf:li>
            <rdf:li>public domain</rdf:li>
            <rdf:li>remix</rdf:li>
            <rdf:li>svg</rdf:li>
          </rdf:Bag>
        </dc:subject>
      </cc:Work>
      <cc:License rdf:about="http://creativecommons.org/licenses/publicdomain/">
        <cc:permits rdf:resource="http://creativecommons.org/ns#Reproduction"/>
        <cc:permits rdf:resource="http://creativecommons.org/ns#Distribution"/>
        <cc:permits rdf:resource="http://creativecommons.org/ns#DerivativeWorks"/>
      </cc:License>
    </rdf:RDF>
  </metadata>
</svg>
