<?xml version="1.0" encoding="utf-8"?>
<!-- Generator: Adobe Illustrator 19.2.1, SVG Export Plug-In . SVG Version: 6.00 Build 0)  -->
<svg version="1.1" id="layer" xmlns="http://www.w3.org/2000/svg" xmlns:xlink="http://www.w3.org/1999/xlink" x="0px" y="0px"
	 viewBox="0 0 652 652" style="enable-background:new 0 0 652 652;" xml:space="preserve">
<g>
	<path d="M48.6,197.7v170.2c0,7.3,0,14.6,0.6,21.3s1.8,12.8,3.6,17.6c2.4,4.9,5.5,8.5,10.3,11.6c4.3,3,10.9,4.3,19.5,4.3
		c13.4,0,23.1-4.3,28-12.2c4.9-7.9,7.9-21.9,7.9-40.7v-172h26.7v170.2c0,4.3,0,9.1-0.6,15.2c0,5.5-1.2,11.6-1.8,17
		c-1.2,5.5-3,11.6-5.5,17c-2.4,5.5-6.1,10.3-10.9,14.6c-4.9,4.3-10.3,7.9-17.6,10.3c-7.3,2.4-15.8,4.3-26.7,4.3
		c-15.2,0-26.7-2.4-35.3-7.3c-8.5-4.9-14.6-10.9-18.2-18.2c-3.6-7.3-6.1-15.8-6.7-24.9c-0.6-9.1-1.2-18.2-1.2-27.4V198.3h28V197.7z"
		/>
	<path d="M170.2,197.7H200l32.8,87.5l34-87.5h27.4l-48,111.9l54.1,131.3h-31.6L229.8,340l-38.9,101.5h-27.4L217,314.5L170.2,197.7z"
		/>
	<path d="M324,197.7h47.4c12.8,0,23.7,1.2,32.8,3.6c8.5,2.4,16.4,7.9,23.1,15.8c1.8,2.4,3.6,4.9,5.5,7.9c1.8,3,3.6,6.7,5.5,10.9
		c1.8,4.3,3,9.1,3.6,14.6c1.2,5.5,1.2,12.2,1.2,19.5c0,9.7-1.2,18.8-3.6,27.4c-2.4,8.5-6.1,16.4-11.6,23.1
		c-5.5,6.7-12.2,11.6-20.7,15.8c-8.5,3.6-18.8,5.5-31.6,5.5H352v99.1h-28C324,440.9,324,197.7,324,197.7z M352,318.7h23.1
		c5.5,0,10.9-0.6,15.8-1.8c4.9-1.2,9.1-3.6,12.8-6.7c3.6-3.6,6.7-8.5,8.5-14.6c1.8-6.1,3-14.6,3-24.3c0-12.2-1.8-21.9-4.9-28.6
		s-7.3-11.6-11.6-14.6c-4.3-3-9.1-4.9-14-5.5c-4.9-0.6-8.5-0.6-12.2-0.6h-21.3v96.7H352z"/>
	<path d="M491.8,197.7v31h-27.4v-31H491.8z M465.6,261h24.9v179.9h-24.9V261z"/>
	<path d="M519.1,261h23.1v27.4c0.6-1.8,1.8-4.9,3.6-8.5c1.8-3.6,4.3-7.3,7.3-10.3c3-3.6,7.3-6.7,11.6-9.1c4.9-2.4,10.3-3.6,17-3.6
		c7.9,0,14.6,1.8,20.1,4.9c5.5,3.6,10.3,7.9,12.8,13.4c3,5.5,4.9,12.8,5.5,22.5c0.6,9.1,0.6,18.8,0.6,29.2v114.3h-24.3V327.2
		c0-5.5,0-10.9-0.6-17c0-5.5-1.2-10.3-2.4-15.2c-1.2-4.3-3.6-7.9-6.7-10.9c-3-3-7.3-4.3-12.8-4.3c-6.7,0-11.6,1.8-15.8,6.1
		c-3.6,4.3-6.7,9.1-8.5,14.6c-1.8,6.1-3,12.2-3.6,18.8s-0.6,12.8-0.6,17.6v104h-24.9V261H519.1z"/>
</g>
</svg>
